# xmcd CD database file
#
# Track frame offsets:
#	150
#	19134
#	37319
#	60048
#	81455
#	100456
#	121064
#	143871
#	157510
#	175225
#	194086
#
# Disc length: 2741 seconds
#
# Revision: 0
# Processed by: cddbd v1.4PL0 Copyright (c) Steve Scherf et al.
# Submitted via: CDex 1.51
#
DISCID=8f0ab30b
DTITLE=José Miguel y su Balanza - José Miguel y su Balanza
DYEAR=2000
DGENRE=Salsa
TTITLE0=Pa' fuera, pa' la calle
TTITLE1=Para siempre
TTITLE2=Amor no pasado
TTITLE3=Sin fe
TTITLE4=Hasta mañana
TTITLE5=Siguaraya
TTITLE6=Mucha tranquilidad
TTITLE7=Sueño que pasó
TTITLE8=Por siempre Benny
TTITLE9=Todos para el baile
TTITLE10=Tema
EXTD=YEAR: 2000
EXTT0=
EXTT1=
EXTT2=
EXTT3=
EXTT4=
EXTT5=
EXTT6=
EXTT7=
EXTT8=
EXTT9=
EXTT10=
PLAYORDER=
